<?xml version="1.0" encoding="UTF-8"?>
<svg width="190px" height="190px" viewBox="0 0 190 190" version="1.1" xmlns="http://www.w3.org/2000/svg" xmlns:xlink="http://www.w3.org/1999/xlink">
    <title>编组 9</title>
    <g id="页面-1" stroke="none" stroke-width="1" fill="none" fill-rule="evenodd">
        <g id="编组-9">
            <rect id="矩形" fill="#FFFFFF" opacity="0" x="0" y="0" width="190" height="190"></rect>
            <g id="编组" transform="translate(14.000000, 1.000000)" fill-rule="nonzero">
                <g>
                    <path d="M124.134609,71.6938636 C132.047542,67.1353778 141.796677,67.1353778 149.709609,71.6938636 C157.622542,76.2523494 162.497109,84.6767785 162.497109,93.79375 C162.497109,107.887366 151.046792,119.3125 136.922109,119.3125 C122.797427,119.3125 111.347109,107.887366 111.347109,93.79375 C111.347109,84.6767785 116.221676,76.2523494 124.134609,71.6938636 Z M131.409986,84.2674702 C127.999072,86.232431 125.897862,89.8638283 125.897862,93.7937496 C125.897862,99.8688819 130.833586,104.79375 136.922109,104.79375 C143.010633,104.79375 147.946356,99.8688819 147.946356,93.7937496 C147.946356,89.8638283 145.845146,86.232431 142.434233,84.2674702 C139.023319,82.3025094 134.8209,82.3025094 131.409986,84.2674702 Z" id="形状结合" fill="#ABC6F6"></path>
                    <path d="M28.9721092,43.75 L50.8971092,21.875 C45.5471092,27.4125 41.9283592,35.1125 41.9283592,43.41875 C41.9283592,50.80625 44.3408592,58.975 49.7096092,64.29375 L123.222109,137.15 L72.7596092,187.5 L14.9783592,129.84375 C5.37853954,120.271464 -0.0117102064,107.268749 0,93.7120137 C0.0117484112,80.1552785 5.42449001,67.1619106 15.0408592,57.60625 L28.9783592,43.75 L28.9721092,43.75 Z" id="路径" fill="#206AFF"></path>
                    <path d="M123.328359,50.35 L72.8721092,0 L50.1471092,22.675 C45.2096092,28.14375 41.9283592,35.50625 41.9283592,43.41875 C41.9283592,50.80625 44.3408592,58.975 49.7096092,64.29375 L79.6283592,93.95 L123.328359,50.35 Z" id="路径" fill="#4F8AFF"></path>
                </g>
            </g>
        </g>
    </g>
</svg>